<svg width="54" height="55" viewBox="0 0 54 55" fill="none" xmlns="http://www.w3.org/2000/svg">
<g filter="url(#filter0_d_7581_6572)">
<path d="M27 25.5C25.22 25.5 23.4799 24.9722 21.9999 23.9832C20.5198 22.9943 19.3663 21.5887 18.6851 19.9442C18.0039 18.2996 17.8257 16.49 18.1729 14.7442C18.5202 12.9984 19.3774 11.3947 20.636 10.136C21.8947 8.87737 23.4984 8.0202 25.2442 7.67294C26.99 7.32567 28.7996 7.5039 30.4442 8.18509C32.0887 8.86628 33.4943 10.0198 34.4832 11.4999C35.4722 12.9799 36 14.72 36 16.5C36 18.887 35.0518 21.1761 33.364 22.864C31.6761 24.5518 29.387 25.5 27 25.5ZM27 10.5C25.8133 10.5 24.6533 10.8519 23.6666 11.5112C22.6799 12.1705 21.9109 13.1075 21.4567 14.2039C21.0026 15.3003 20.8838 16.5067 21.1153 17.6705C21.3468 18.8344 21.9182 19.9035 22.7574 20.7426C23.5965 21.5818 24.6656 22.1532 25.8295 22.3847C26.9933 22.6162 28.1997 22.4974 29.2961 22.0433C30.3925 21.5892 31.3295 20.8201 31.9888 19.8334C32.6481 18.8467 33 17.6867 33 16.5C33 14.9087 32.3679 13.3826 31.2426 12.2574C30.1174 11.1321 28.5913 10.5 27 10.5Z" fill="#225B7B"/>
<path d="M27.0009 46.5003C23.6746 46.4981 20.3901 45.7584 17.384 44.3344C14.3779 42.9104 11.7248 40.8377 9.61594 38.2653L8.83594 37.3053L9.61594 36.3603C11.7266 33.7913 14.3804 31.7219 17.3865 30.3012C20.3925 28.8804 23.6761 28.1436 27.0009 28.1436C30.3258 28.1436 33.6094 28.8804 36.6154 30.3012C39.6215 31.7219 42.2753 33.7913 44.3859 36.3603L45.1659 37.3053L44.3859 38.2653C42.277 40.8377 39.624 42.9104 36.6179 44.3344C33.6117 45.7584 30.3273 46.4981 27.0009 46.5003ZM12.7659 37.3203C14.5903 39.2733 16.7966 40.8305 19.248 41.8951C21.6993 42.9597 24.3434 43.5091 27.0159 43.5091C29.6885 43.5091 32.3325 42.9597 34.7839 41.8951C37.2352 40.8305 39.4416 39.2733 41.2659 37.3203C39.4416 35.3673 37.2352 33.8101 34.7839 32.7455C32.3325 31.6808 29.6885 31.1315 27.0159 31.1315C24.3434 31.1315 21.6993 31.6808 19.248 32.7455C16.7966 33.8101 14.5903 35.3673 12.7659 37.3203Z" fill="#225B7B"/>
<path d="M26.9994 46.5C21.8885 46.5034 16.9288 44.7667 12.9364 41.5757C8.9441 38.3847 6.15713 33.9296 5.0342 28.9436C3.91127 23.9576 4.51931 18.7378 6.75823 14.1434C8.99716 9.54906 12.7336 5.85382 17.3525 3.66592C21.9714 1.47802 27.1975 0.927835 32.1708 2.10592C37.144 3.28401 41.568 6.12016 44.7146 10.1476C47.8612 14.175 49.5429 19.1537 49.4828 24.2642C49.4228 29.3748 47.6247 34.3126 44.3844 38.265C42.2755 40.8374 39.6225 42.9102 36.6163 44.3341C33.6102 45.7581 30.3257 46.4978 26.9994 46.5ZM26.9994 4.50002C23.1427 4.50002 19.3725 5.64367 16.1658 7.78636C12.959 9.92905 10.4597 12.9745 8.98375 16.5377C7.50784 20.1008 7.12167 24.0216 7.87408 27.8043C8.6265 31.5869 10.4837 35.0615 13.2108 37.7886C15.9379 40.5157 19.4125 42.3729 23.1951 43.1253C26.9778 43.8777 30.8986 43.4916 34.4617 42.0157C38.0249 40.5398 41.0704 38.0404 43.2131 34.8336C45.3557 31.6269 46.4994 27.8568 46.4994 24C46.4994 18.8283 44.4449 13.8684 40.788 10.2114C37.131 6.55447 32.1711 4.50002 26.9994 4.50002Z" fill="#225B7B"/>
<path d="M10.7656 37.3197C10.7656 37.3197 25.8706 54.1947 41.2456 38.9997L43.2256 37.3197C43.2256 37.3197 30.3856 23.9997 17.3506 31.9947L10.7656 37.3197Z" fill="#225B7B"/>
<path d="M27 24C31.1421 24 34.5 20.6421 34.5 16.5C34.5 12.3579 31.1421 9 27 9C22.8579 9 19.5 12.3579 19.5 16.5C19.5 20.6421 22.8579 24 27 24Z" fill="#225B7B"/>
</g>
<defs>
<filter id="filter0_d_7581_6572" x="-1" y="0" width="56" height="56" filterUnits="userSpaceOnUse" color-interpolation-filters="sRGB">
<feFlood flood-opacity="0" result="BackgroundImageFix"/>
<feColorMatrix in="SourceAlpha" type="matrix" values="0 0 0 0 0 0 0 0 0 0 0 0 0 0 0 0 0 0 127 0" result="hardAlpha"/>
<feOffset dy="4"/>
<feGaussianBlur stdDeviation="2"/>
<feComposite in2="hardAlpha" operator="out"/>
<feColorMatrix type="matrix" values="0 0 0 0 0 0 0 0 0 0 0 0 0 0 0 0 0 0 0.25 0"/>
<feBlend mode="normal" in2="BackgroundImageFix" result="effect1_dropShadow_7581_6572"/>
<feBlend mode="normal" in="SourceGraphic" in2="effect1_dropShadow_7581_6572" result="shape"/>
</filter>
</defs>
</svg>
