<svg width="64" height="64" viewBox="0 0 64 64" fill="none" xmlns="http://www.w3.org/2000/svg">
<g>
<path d="M13.4851 38.4102C13.4798 38.4123 13.4746 38.4143 13.4693 38.4165C10.8394 39.4989 8.00879 42.6006 8.00879 46.8525V61.4363C8.00879 62.85 9.1588 64 10.5724 64H38.4318C38.9497 64 39.3693 63.5803 39.3693 63.0625C39.3693 62.5446 38.9497 62.125 38.4318 62.125H34.648V52.2503C34.648 51.7324 34.2284 51.3127 33.7105 51.3127C33.1926 51.3127 32.773 51.7324 32.773 52.2503V62.125H31.2241V39.1069H32.773V47.8752C32.773 48.3931 33.1926 48.8127 33.7105 48.8127C34.2284 48.8127 34.648 48.3931 34.648 47.8752V40.7068C35.2833 41.5514 36.4761 41.6739 37.2689 41.0165L41.9754 37.1136L49.826 40.1539C51.9595 41.0367 54.1164 43.6184 54.1164 46.8525V61.4363C54.1164 61.8159 53.8074 62.125 53.4278 62.125H48.4656V45.895C48.4656 45.3771 48.046 44.9575 47.5281 44.9575C47.0102 44.9575 46.5906 45.3771 46.5906 45.895V62.125H42.8068C42.2889 62.125 41.8693 62.5446 41.8693 63.0625C41.8693 63.5803 42.2889 64 42.8068 64H53.4279C54.8415 64 55.9916 62.85 55.9916 61.4363V46.8525C55.9916 43.2088 53.7462 39.7398 50.5311 38.4165C50.525 38.414 50.5189 38.4117 50.5129 38.4092L42.1394 35.1664C41.3004 34.8415 38.8154 33.879 37.927 33.535L37.925 31.0607C39.9952 29.5228 41.4409 27.2296 41.8473 24.6012C44.4903 24.8247 46.7417 22.7338 46.7417 20.107C46.7417 18.7355 46.1257 17.506 45.1566 16.678V13.1563C45.1566 5.90192 39.2547 0 32.0002 0C24.7458 0 18.8439 5.90192 18.8439 13.1563V16.6781C17.8749 17.506 17.2589 18.7356 17.2589 20.107C17.2589 22.7269 19.5003 24.8192 22.1427 24.6019C22.5298 27.2254 23.9545 29.545 26.0682 31.0753V33.496C24.3638 34.1616 14.571 37.9861 13.4851 38.4102ZM29.3493 62.125H17.41V45.895C17.41 45.3771 16.9904 44.9575 16.4725 44.9575C15.9546 44.9575 15.535 45.3771 15.535 45.895V62.125H10.5726C10.1929 62.125 9.88393 61.8159 9.88393 61.4363V46.8525C9.88393 43.2386 12.4477 40.8683 14.1757 40.1534L22.0039 37.0961L26.7314 41.0165C27.5273 41.6768 28.7166 41.5471 29.3492 40.7108V62.125H29.3493ZM33.4616 36.0185C33.0802 36.3348 32.856 36.7903 32.8095 37.2319H31.191C31.1427 36.7705 30.9101 36.3261 30.5389 36.0185L27.9216 33.8481C27.9301 33.7926 27.9432 33.6527 27.9432 33.5561V32.1405C30.4922 33.2354 33.4846 33.2857 36.0509 32.1645L36.052 33.5644C36.0523 33.6617 36.0603 33.7575 36.075 33.8512L33.4616 36.0185ZM39.9733 36.3383L36.1153 39.5375L34.6939 37.4324L37.274 35.2929L39.9733 36.3383ZM44.8666 20.1069C44.8666 21.662 43.5192 22.8863 41.9648 22.7292V17.4864C43.5182 17.3299 44.8666 18.5489 44.8666 20.1069ZM22.0357 22.7292C20.481 22.8863 19.1339 21.6617 19.1339 20.1069C19.1339 18.5499 20.4808 17.3296 22.0357 17.4863V22.7292ZM22.0478 15.6051C21.6215 15.5789 21.1516 15.6165 20.7188 15.7197V13.1563C20.7188 6.9358 25.7796 1.87501 32.0002 1.87501C38.2208 1.87501 43.2815 6.9358 43.2815 13.1563V15.7196C42.8423 15.615 42.3721 15.5792 41.9526 15.6051C41.7011 11.8973 37.7649 9.66007 34.4064 11.2892C34.4064 11.2892 34.4063 11.2892 34.4063 11.2893C32.6654 12.134 31.336 12.1345 29.5941 11.2893C26.2096 9.6472 22.2968 11.9307 22.0478 15.6051ZM23.9107 23.1465C23.9107 22.3062 23.9107 16.8031 23.9107 15.9664C23.9107 13.4257 26.5631 11.9026 28.7757 12.9763C31.0349 14.0722 32.9625 14.074 35.2249 12.9762C37.4455 11.8992 40.0899 13.4321 40.0899 15.9662V23.0804C40.0899 25.1579 39.288 27.2004 37.7157 28.771C32.7451 33.7359 23.9107 30.2961 23.9107 23.1465ZM26.6928 35.2649L29.3066 37.4324L27.8853 39.5375L24.0008 36.3164L26.6928 35.2649Z" fill="#fff"/>
</g>
</svg>
