<svg width="36" height="29" viewBox="0 0 36 29" fill="none" xmlns="http://www.w3.org/2000/svg">
<path d="M34.1499 26.9996H30.3499V4.59961C30.3499 4.38744 30.2498 4.18395 30.0717 4.03392C29.8935 3.88389 29.6519 3.79961 29.3999 3.79961H26.5499V1.39961C26.5499 1.18744 26.4498 0.983953 26.2717 0.833924C26.0935 0.683895 25.8519 0.599609 25.5999 0.599609H10.3999C10.1479 0.599609 9.90631 0.683895 9.72815 0.833924C9.54999 0.983953 9.4499 1.18744 9.4499 1.39961V3.79961H6.5999C6.34795 3.79961 6.10631 3.88389 5.92815 4.03392C5.74999 4.18395 5.6499 4.38744 5.6499 4.59961V26.9996H1.8499C1.59795 26.9996 1.35631 27.0839 1.17815 27.2339C0.999991 27.384 0.899902 27.5874 0.899902 27.7996C0.899902 28.0118 0.999991 28.2153 1.17815 28.3653C1.35631 28.5153 1.59795 28.5996 1.8499 28.5996H34.1499C34.4019 28.5996 34.6435 28.5153 34.8217 28.3653C34.9998 28.2153 35.0999 28.0118 35.0999 27.7996C35.0999 27.5874 34.9998 27.384 34.8217 27.2339C34.6435 27.0839 34.4019 26.9996 34.1499 26.9996V26.9996ZM11.3499 2.19961H24.6499V3.79961H11.3499V2.19961ZM13.2499 26.9996V22.1996H17.0499V26.9996H13.2499ZM18.9499 26.9996V22.1996H22.7499V26.9996H18.9499ZM24.6499 26.9996V21.3996C24.6499 21.1874 24.5498 20.984 24.3717 20.8339C24.1935 20.6839 23.9519 20.5996 23.6999 20.5996H12.2999C12.0479 20.5996 11.8063 20.6839 11.6281 20.8339C11.45 20.984 11.3499 21.1874 11.3499 21.3996V26.9996H7.5499V5.39961H28.4499V26.9996H24.6499ZM26.5499 8.59961C26.5499 8.81178 26.4498 9.01527 26.2717 9.16529C26.0935 9.31532 25.8519 9.39961 25.5999 9.39961H21.7999C21.5479 9.39961 21.3063 9.31532 21.1281 9.16529C20.95 9.01527 20.8499 8.81178 20.8499 8.59961C20.8499 8.38744 20.95 8.18395 21.1281 8.03392C21.3063 7.88389 21.5479 7.79961 21.7999 7.79961H25.5999C25.8519 7.79961 26.0935 7.88389 26.2717 8.03392C26.4498 8.18395 26.5499 8.38744 26.5499 8.59961ZM15.1499 8.59961C15.1499 8.81178 15.0498 9.01527 14.8717 9.16529C14.6935 9.31532 14.4519 9.39961 14.1999 9.39961H10.3999C10.1479 9.39961 9.90631 9.31532 9.72815 9.16529C9.54999 9.01527 9.4499 8.81178 9.4499 8.59961C9.4499 8.38744 9.54999 8.18395 9.72815 8.03392C9.90631 7.88389 10.1479 7.79961 10.3999 7.79961H14.1999C14.4519 7.79961 14.6935 7.88389 14.8717 8.03392C15.0498 8.18395 15.1499 8.38744 15.1499 8.59961ZM26.5499 12.5996C26.5499 12.8118 26.4498 13.0153 26.2717 13.1653C26.0935 13.3153 25.8519 13.3996 25.5999 13.3996H21.7999C21.5479 13.3996 21.3063 13.3153 21.1281 13.1653C20.95 13.0153 20.8499 12.8118 20.8499 12.5996C20.8499 12.3874 20.95 12.184 21.1281 12.0339C21.3063 11.8839 21.5479 11.7996 21.7999 11.7996H25.5999C25.8519 11.7996 26.0935 11.8839 26.2717 12.0339C26.4498 12.184 26.5499 12.3874 26.5499 12.5996ZM15.1499 12.5996C15.1499 12.8118 15.0498 13.0153 14.8717 13.1653C14.6935 13.3153 14.4519 13.3996 14.1999 13.3996H10.3999C10.1479 13.3996 9.90631 13.3153 9.72815 13.1653C9.54999 13.0153 9.4499 12.8118 9.4499 12.5996C9.4499 12.3874 9.54999 12.184 9.72815 12.0339C9.90631 11.8839 10.1479 11.7996 10.3999 11.7996H14.1999C14.4519 11.7996 14.6935 11.8839 14.8717 12.0339C15.0498 12.184 15.1499 12.3874 15.1499 12.5996ZM26.5499 16.5996C26.5499 16.8118 26.4498 17.0153 26.2717 17.1653C26.0935 17.3153 25.8519 17.3996 25.5999 17.3996H21.7999C21.5479 17.3996 21.3063 17.3153 21.1281 17.1653C20.95 17.0153 20.8499 16.8118 20.8499 16.5996C20.8499 16.3874 20.95 16.184 21.1281 16.0339C21.3063 15.8839 21.5479 15.7996 21.7999 15.7996H25.5999C25.8519 15.7996 26.0935 15.8839 26.2717 16.0339C26.4498 16.184 26.5499 16.3874 26.5499 16.5996ZM15.1499 16.5996C15.1499 16.8118 15.0498 17.0153 14.8717 17.1653C14.6935 17.3153 14.4519 17.3996 14.1999 17.3996H10.3999C10.1479 17.3996 9.90631 17.3153 9.72815 17.1653C9.54999 17.0153 9.4499 16.8118 9.4499 16.5996C9.4499 16.3874 9.54999 16.184 9.72815 16.0339C9.90631 15.8839 10.1479 15.7996 10.3999 15.7996H14.1999C14.4519 15.7996 14.6935 15.8839 14.8717 16.0339C15.0498 16.184 15.1499 16.3874 15.1499 16.5996Z" fill="white"/>
</svg>
