<svg width="34" height="34" viewBox="0 0 64 64" fill="none" xmlns="http://www.w3.org/2000/svg">
<path d="M59.2002 56H52.8002V11.2C52.8002 10.7757 52.6316 10.3687 52.3316 10.0686C52.0315 9.76858 51.6245 9.60001 51.2002 9.60001H46.4002V4.80001C46.4002 4.37567 46.2316 3.9687 45.9316 3.66864C45.6315 3.36858 45.2245 3.20001 44.8002 3.20001H19.2002C18.7758 3.20001 18.3689 3.36858 18.0688 3.66864C17.7688 3.9687 17.6002 4.37567 17.6002 4.80001V9.60001H12.8002C12.3758 9.60001 11.9689 9.76858 11.6688 10.0686C11.3688 10.3687 11.2002 10.7757 11.2002 11.2V56H4.8002C4.37585 56 3.96888 56.1686 3.66882 56.4686C3.36877 56.7687 3.2002 57.1757 3.2002 57.6C3.2002 58.0244 3.36877 58.4313 3.66882 58.7314C3.96888 59.0314 4.37585 59.2 4.8002 59.2H59.2002C59.6245 59.2 60.0315 59.0314 60.3316 58.7314C60.6316 58.4313 60.8002 58.0244 60.8002 57.6C60.8002 57.1757 60.6316 56.7687 60.3316 56.4686C60.0315 56.1686 59.6245 56 59.2002 56ZM20.8002 6.40001H43.2002V9.60001H20.8002V6.40001ZM24.0002 56V46.4H30.4002V56H24.0002ZM33.6002 56V46.4H40.0002V56H33.6002ZM43.2002 56V44.8C43.2002 44.3757 43.0316 43.9687 42.7316 43.6686C42.4315 43.3686 42.0245 43.2 41.6002 43.2H22.4002C21.9758 43.2 21.5689 43.3686 21.2688 43.6686C20.9688 43.9687 20.8002 44.3757 20.8002 44.8V56H14.4002V12.8H49.6002V56H43.2002ZM46.4002 19.2C46.4002 19.6244 46.2316 20.0313 45.9316 20.3314C45.6315 20.6314 45.2245 20.8 44.8002 20.8H38.4002C37.9758 20.8 37.5689 20.6314 37.2688 20.3314C36.9688 20.0313 36.8002 19.6244 36.8002 19.2C36.8002 18.7757 36.9688 18.3687 37.2688 18.0686C37.5689 17.7686 37.9758 17.6 38.4002 17.6H44.8002C45.2245 17.6 45.6315 17.7686 45.9316 18.0686C46.2316 18.3687 46.4002 18.7757 46.4002 19.2ZM27.2002 19.2C27.2002 19.6244 27.0316 20.0313 26.7316 20.3314C26.4315 20.6314 26.0245 20.8 25.6002 20.8H19.2002C18.7758 20.8 18.3689 20.6314 18.0688 20.3314C17.7688 20.0313 17.6002 19.6244 17.6002 19.2C17.6002 18.7757 17.7688 18.3687 18.0688 18.0686C18.3689 17.7686 18.7758 17.6 19.2002 17.6H25.6002C26.0245 17.6 26.4315 17.7686 26.7316 18.0686C27.0316 18.3687 27.2002 18.7757 27.2002 19.2ZM46.4002 27.2C46.4002 27.6244 46.2316 28.0313 45.9316 28.3314C45.6315 28.6314 45.2245 28.8 44.8002 28.8H38.4002C37.9758 28.8 37.5689 28.6314 37.2688 28.3314C36.9688 28.0313 36.8002 27.6244 36.8002 27.2C36.8002 26.7757 36.9688 26.3687 37.2688 26.0686C37.5689 25.7686 37.9758 25.6 38.4002 25.6H44.8002C45.2245 25.6 45.6315 25.7686 45.9316 26.0686C46.2316 26.3687 46.4002 26.7757 46.4002 27.2ZM27.2002 27.2C27.2002 27.6244 27.0316 28.0313 26.7316 28.3314C26.4315 28.6314 26.0245 28.8 25.6002 28.8H19.2002C18.7758 28.8 18.3689 28.6314 18.0688 28.3314C17.7688 28.0313 17.6002 27.6244 17.6002 27.2C17.6002 26.7757 17.7688 26.3687 18.0688 26.0686C18.3689 25.7686 18.7758 25.6 19.2002 25.6H25.6002C26.0245 25.6 26.4315 25.7686 26.7316 26.0686C27.0316 26.3687 27.2002 26.7757 27.2002 27.2ZM46.4002 35.2C46.4002 35.6244 46.2316 36.0313 45.9316 36.3314C45.6315 36.6314 45.2245 36.8 44.8002 36.8H38.4002C37.9758 36.8 37.5689 36.6314 37.2688 36.3314C36.9688 36.0313 36.8002 35.6244 36.8002 35.2C36.8002 34.7757 36.9688 34.3687 37.2688 34.0686C37.5689 33.7686 37.9758 33.6 38.4002 33.6H44.8002C45.2245 33.6 45.6315 33.7686 45.9316 34.0686C46.2316 34.3687 46.4002 34.7757 46.4002 35.2ZM27.2002 35.2C27.2002 35.6244 27.0316 36.0313 26.7316 36.3314C26.4315 36.6314 26.0245 36.8 25.6002 36.8H19.2002C18.7758 36.8 18.3689 36.6314 18.0688 36.3314C17.7688 36.0313 17.6002 35.6244 17.6002 35.2C17.6002 34.7757 17.7688 34.3687 18.0688 34.0686C18.3689 33.7686 18.7758 33.6 19.2002 33.6H25.6002C26.0245 33.6 26.4315 33.7686 26.7316 34.0686C27.0316 34.3687 27.2002 34.7757 27.2002 35.2Z" fill="#2E2E2D"/>
</svg>
