<svg width="66" height="66" viewBox="0 0 66 66" fill="none" xmlns="http://www.w3.org/2000/svg">
<g>
<path d="M48.7826 19.3696H17.2173V22.2392H48.7826V19.3696Z" fill="#FFFFFF"/>
<path d="M48.7827 23.6739H45.9131V26.5435H48.7827V23.6739Z" fill="#FFFFFF"/>
<path d="M20.0869 23.6739H17.2173V26.5435H20.0869V23.6739Z" fill="#FFFFFF"/>
<path d="M34.435 10.0435H31.5654V12.913H34.435V10.0435Z" fill="#FFFFFF"/>
<path d="M38.7392 10.0435H35.8696V12.913H38.7392V10.0435Z" fill="#FFFFFF"/>
<path d="M30.1303 10.0435H27.2607V12.913H30.1303V10.0435Z" fill="#FFFFFF"/>
<path d="M25.8261 10.0435H22.9565V12.913H25.8261V10.0435Z" fill="#FFFFFF"/>
<path d="M43.0439 10.0435H40.1743V12.913H43.0439V10.0435Z" fill="#FFFFFF"/>
<path d="M59.2272 61.8644C57.9683 62.5359 56.8768 63.1159 54.6005 63.1293L63.0571 37.7581C63.2898 37.0596 62.9561 36.2982 62.2847 35.996L54.522 32.5029V18.6522C54.522 16.2788 52.5911 14.3479 50.2177 14.3479H48.0654V7.17389C48.0654 6.3815 47.4231 5.73916 46.6307 5.73916H34.4349V0H31.5654V5.73916H19.3697C18.5774 5.73916 17.935 6.3815 17.935 7.17389V14.3478H15.7828C13.4094 14.3478 11.4785 16.2787 11.4785 18.6521V32.5019L3.71562 35.9959C3.04415 36.2981 2.71054 37.0595 2.94347 37.7579L11.4001 63.129C9.12362 63.1156 8.0323 62.5358 6.7734 61.8643C5.36407 61.1128 3.76667 60.2608 0.717773 60.2608V63.1304C3.0493 63.1304 4.14939 63.7171 5.42298 64.3964C6.83219 65.1481 8.42946 66 11.4785 66C12.2856 66 12.9741 65.9466 13.5825 65.8372C15.3431 65.5602 16.5067 64.9403 17.5336 64.3931C18.8051 63.7155 19.9032 63.1304 22.2255 63.1304C24.5571 63.1304 25.657 63.7171 26.9307 64.3964C28.3399 65.1481 29.9373 66 32.9862 66C36.0351 66 37.6325 65.1481 39.0419 64.3965C40.3155 63.7172 41.4156 63.1305 43.7471 63.1305C46.0776 63.1305 47.1791 63.7157 48.4545 64.3933C49.4846 64.9404 50.6514 65.5603 52.4184 65.8373C53.0265 65.9469 53.7148 66.0001 54.5218 66.0001C57.5707 66.0001 59.1681 65.1482 60.5775 64.3967C61.8512 63.7173 62.9512 63.1307 65.2827 63.1307V60.2611C62.2339 60.2608 60.6365 61.1128 59.2272 61.8644ZM59.9247 38.0806L58.8959 41.167L34.4349 29.928V26.6102L59.9247 38.0806ZM20.8045 8.60875H45.1957V14.3479H20.8045V8.60875ZM14.3479 18.6522C14.3479 17.8611 14.9916 17.2175 15.7827 17.2175H19.3696H46.6305H50.2174C51.0085 17.2175 51.6521 17.8611 51.6521 18.6522V31.2114L33.5886 23.083C33.2141 22.9144 32.7854 22.9142 32.4111 23.083L14.3477 31.2108V18.6522H14.3479ZM6.07576 38.0806L31.5654 26.6104V29.9282L7.10444 41.167L6.07576 38.0806ZM51.7091 62.7286C51.0121 62.5019 50.4347 62.196 49.8005 61.8591C48.3905 61.1101 46.7922 60.261 43.747 60.261C40.6981 60.261 39.1007 61.1129 37.6913 61.8644C36.4175 62.5438 35.3176 63.1305 32.9861 63.1305C30.6546 63.1305 29.5545 62.5439 28.2809 61.8644C26.8717 61.1129 25.2742 60.261 22.2253 60.261C19.1862 60.261 17.5912 61.1108 16.1841 61.8606C15.5545 62.196 14.9811 62.5006 14.2906 62.7267L8.01709 43.9055L31.5653 33.0861V50.2174H34.4349V33.0861L57.9831 43.9056L51.7091 62.7286Z" fill="#FFFFFF"/>
</g>
</svg>
